<?xml version="1.0" encoding="UTF-8" standalone="no"?>
<svg
        xmlns="http://www.w3.org/2000/svg"
        id="svg60"
        xml:space="preserve"
        viewBox="0 0 4885 3500"
        height="3500"
        width="4885"
        version="1.1"><desc
     id="desc2">Created with Fabric.js 1.7.7</desc>
    <defs
            id="defs4"/>
    <g
            id="g58"
            transform="translate(2442.52,1750)"><g
       id="g56"
       transform="scale(21.84)"><g
         id="g10"
         transform="matrix(6.85,0,0,5.82,34.34,-1.45)"><g
           id="text8"
           style="font-weight:normal;font-size:20px;font-family:Catamaran;opacity:1;fill:#000000;fill-rule:nonzero;stroke:#ffffff;stroke-width:0.5;stroke-linecap:butt;stroke-linejoin:miter;stroke-miterlimit:10;stroke-dasharray:none"
           aria-label="M"><path
             id="path66"
             style="opacity:1;fill:#000000;stroke:#ffffff;stroke-width:0;stroke-linecap:butt;stroke-linejoin:miter;stroke-miterlimit:4;stroke-dasharray:none"
             d="m 2.9099997,6.3000002 h 1.6 v -13.6 h -1 l -4.72,6.93999999 -4.88,-6.93999999 h -0.94 v 13.6 h 1.58 v -10.28 l 4.02,5.8 0.53999996,-0.1 3.80000004,-5.66 z" /></g></g><g
            id="g16"
            transform="matrix(3.17,0,0,3.06,-43.61,-0.81)"><g
           id="text14"
           style="font-style:normal;font-weight:normal;font-size:36px;font-family:Overpass;opacity:1;fill:#000000;fill-rule:nonzero;stroke:#ffffff;stroke-width:0.5;stroke-linecap:butt;stroke-linejoin:miter;stroke-miterlimit:10;stroke-dasharray:none"
           aria-label="Y"><path
             id="path69"
             style="opacity:1;fill:#000000;stroke:#ffffff;stroke-width:0;stroke-linecap:butt;stroke-linejoin:miter;stroke-miterlimit:4;stroke-dasharray:none"
             d="M -1.532,11.34 V 1.4400002 L -10.1,-13.86 h 3.528 L 0.01600004,-1.6199998 6.676,-13.86 h 3.42 L 1.6,1.3680002 V 11.34 Z" /></g></g><g
            id="g54"
            transform="matrix(0.99,0,0,1.04,-100.38247,-67.256)"
            style="opacity:1;fill:#000000;fill-rule:nonzero;stroke:#ffffff;stroke-width:0.5;stroke-linecap:butt;stroke-linejoin:miter;stroke-miterlimit:10;stroke-dasharray:none"><path
           id="path18"
           style="opacity:1;fill:#000000;fill-rule:nonzero;stroke:#ffffff;stroke-width:0.5;stroke-linecap:butt;stroke-linejoin:miter;stroke-miterlimit:10;stroke-dasharray:none"
           d="m 61.593,46.267 0.004,0.021 0.005,0.021 c 0.038,0.222 0.797,0.109 0.984,-0.134 l 0.007,-0.004 c 2.208,-2.732 5.82,-2.428 8.966,-2.792 2.021,-0.233 4.051,-0.587 5.985,-1.222 4.405,-1.444 6.639,-6.494 9.865,-9.446 0.22,-0.2 0.043,-0.302 -0.192,-0.302 -5.819,-0.023 -12.049,-0.503 -17.617,1.562 -5.241,1.944 -6.759,7.319 -8.007,12.296" />
        <path
                id="path20"
                style="opacity:1;fill:#000000;fill-rule:nonzero;stroke:#ffffff;stroke-width:0.5;stroke-linecap:butt;stroke-linejoin:miter;stroke-miterlimit:10;stroke-dasharray:none"
                d="m 47.388,21.693 c -0.955,4.124 1.494,10.174 4.587,12.904 0.129,0.115 0.324,0.122 0.501,0.065 0.137,-0.028 0.263,-0.095 0.339,-0.208 4.706,-6.957 11.15,-16.488 5.445,-24.755 -0.212,-0.309 -0.711,-0.16 -0.919,0.066 -3.725,4.075 -8.619,6.178 -9.953,11.928"/>
        <path
                id="path22"
                style="opacity:1;fill:#000000;fill-rule:nonzero;stroke:#ffffff;stroke-width:0.5;stroke-linecap:butt;stroke-linejoin:miter;stroke-miterlimit:10;stroke-dasharray:none"
                d="m 34.734,51.221 0.117,-0.059 0.035,-0.021 0.096,-0.082 0.002,-0.003 0.034,-0.059 0.014,-0.058 0.008,-0.023 v -0.239 c 0,-0.102 -0.156,-0.135 -0.347,-0.121 -5.661,-5.514 -14.308,-4.793 -20.791,-8.892 -0.179,-0.113 -1.148,0.005 -1.01,0.333 1.693,4.052 2.977,8.907 7.075,11.195 4.74,2.644 10.286,-0.031 14.734,-1.956 z"/>
        <path
                id="path24"
                style="opacity:1;fill:#000000;fill-rule:nonzero;stroke:#ffffff;stroke-width:0.5;stroke-linecap:butt;stroke-linejoin:miter;stroke-miterlimit:10;stroke-dasharray:none"
                d="m 38.014,65.277 c 2.927,-3.315 2.48,-7.552 2.438,-11.654 -0.002,-0.156 -0.257,-0.186 -0.514,-0.13 l -0.214,0.062 c -3.461,1.68 -7.188,2.932 -9.8,5.896 -2.876,3.259 -1.969,8.294 -2.962,12.235 -0.097,0.387 0.72,0.149 0.845,0.08 3.542,-1.967 7.461,-3.382 10.207,-6.489"/>
        <path
                id="path26"
                style="opacity:1;fill:#000000;fill-rule:nonzero;stroke:#ffffff;stroke-width:0.5;stroke-linecap:butt;stroke-linejoin:miter;stroke-miterlimit:10;stroke-dasharray:none"
                d="M 26.812,36.294 H 26.9 l 0.062,-0.01 c 0.299,-0.045 0.592,-0.247 0.503,-0.518 -1.025,-3.133 -1.885,-7.154 -4.471,-9.445 -2.563,-2.271 -6.516,-2.166 -9.677,-1.604 -0.317,0.056 -0.584,0.419 -0.303,0.672 2.637,2.381 2.634,6.229 5.3,8.521 2.213,1.901 5.74,1.89 8.448,2.382 h 0.05 z"/>
        <path
                id="path28"
                style="opacity:1;fill:#000000;fill-rule:nonzero;stroke:#ffffff;stroke-width:0.5;stroke-linecap:butt;stroke-linejoin:miter;stroke-miterlimit:10;stroke-dasharray:none"
                d="m 82.325,65.637 c -3.229,-1.935 -6.361,-4.34 -10.181,-4.881 -3.393,-0.482 -6.024,0.671 -9.221,1.685 -0.145,0.047 -0.219,0.106 -0.249,0.171 l 0.004,0.23 c 1.987,3.205 5.032,6.789 8.965,7.415 4.424,0.703 6.754,-2.553 10.577,-4.065 0.249,-0.098 0.379,-0.39 0.105,-0.555"/>
        <path
                id="path30"
                style="opacity:1;fill:#000000;fill-rule:nonzero;stroke:#ffffff;stroke-width:0.5;stroke-linecap:butt;stroke-linejoin:miter;stroke-miterlimit:10;stroke-dasharray:none"
                d="m 66.488,53.189 c -0.074,0.113 -0.059,0.194 0.008,0.247 0.033,0.039 0.088,0.073 0.172,0.099 5.892,1.838 10.949,0.225 15.351,-3.984 0.233,-0.224 0.013,-0.424 -0.235,-0.45 -5.671,-0.584 -11.754,-1.317 -15.296,4.088"/>
        <path
                id="path32"
                style="opacity:1;fill:#000000;fill-rule:nonzero;stroke:#ffffff;stroke-width:0.5;stroke-linecap:butt;stroke-linejoin:miter;stroke-miterlimit:10;stroke-dasharray:none"
                d="m 36.259,22.924 c 0.292,0.257 0.899,-0.019 0.928,-0.349 2.331,-2.359 1.812,-5.882 0.568,-8.673 -1.592,-3.574 -6.044,-2.686 -8.583,-4.823 -0.317,-0.269 -0.988,0.019 -0.922,0.455 0.487,3.17 0.644,6.359 2.29,9.193 1.294,2.231 3.873,2.58 5.719,4.197"/>
        <path
                id="path34"
                style="opacity:1;fill:#000000;fill-rule:nonzero;stroke:#ffffff;stroke-width:0.5;stroke-linecap:butt;stroke-linejoin:miter;stroke-miterlimit:10;stroke-dasharray:none"
                d="m 61.094,26.182 c 2.436,0.011 5.171,0.302 7.552,-0.338 3.041,-0.816 5.266,-4.345 7.855,-6.025 0.196,-0.127 0.305,-0.353 10e-4,-0.418 -2.825,-0.601 -6.36,-1.79 -9.183,-0.468 -3.043,1.423 -4.813,4.166 -6.504,6.961 l -0.013,0.16 c -0.002,0.072 0.077,0.128 0.292,0.128"/>
        <path
                id="path36"
                style="opacity:1;fill:#000000;fill-rule:nonzero;stroke:#ffffff;stroke-width:0.5;stroke-linecap:butt;stroke-linejoin:miter;stroke-miterlimit:10;stroke-dasharray:none"
                d="m 27.572,44.208 c 2.506,1.403 5.173,1.063 7.126,-1.006 l 0.062,-0.123 c -2.381,-4.594 -7.229,-5.546 -11.708,-3.465 -0.085,0.04 -0.291,0.149 -0.187,0.263 1.512,1.66 2.705,3.208 4.707,4.331"/>
        <path
                id="path38"
                style="opacity:1;fill:#000000;fill-rule:nonzero;stroke:#ffffff;stroke-width:0.5;stroke-linecap:butt;stroke-linejoin:miter;stroke-miterlimit:10;stroke-dasharray:none"
                d="m 46.889,66.067 c -0.068,-1.976 -0.748,-3.919 -0.491,-5.895 l -0.01,-0.149 c -0.078,-0.279 -0.758,-0.188 -0.971,0.074 -2.01,1.576 -3.833,3.195 -5.092,5.45 -1.865,3.337 -2.668,7.343 -3.627,10.999 -0.079,0.302 0.456,0.263 0.602,0.227 3.27,-0.812 6.073,-2.246 7.991,-5.1 1.054,-1.567 1.662,-3.732 1.598,-5.606"/>
        <path
                id="path40"
                style="opacity:1;fill:#000000;fill-rule:nonzero;stroke:#ffffff;stroke-width:0.5;stroke-linecap:butt;stroke-linejoin:miter;stroke-miterlimit:10;stroke-dasharray:none"
                d="m 27.847,23.859 0.06,-0.002 c 0.303,0.021 0.654,-0.142 0.648,-0.429 -0.086,-3.579 -1.304,-6.376 -4.179,-8.562 -4.183,-3.182 -8.807,-4.563 -12.107,-8.953 -0.23,-0.306 -1.016,-0.167 -1.007,0.27 0.074,4.389 1.121,9.062 4.458,12.18 3.254,3.042 7.78,4.784 12.127,5.496"/>
        <path
                id="path42"
                style="opacity:1;fill:#000000;fill-rule:nonzero;stroke:#ffffff;stroke-width:0.5;stroke-linecap:butt;stroke-linejoin:miter;stroke-miterlimit:10;stroke-dasharray:none"
                d="m 89.017,59.001 c -1.857,0.337 -2.729,-1.299 -3.842,-2.437 -0.712,-0.729 -1.604,-0.884 -2.577,-0.932 -2.29,-0.108 -5.108,0.54 -7.085,1.715 -0.087,0.054 -0.148,0.112 -0.194,0.173 -0.157,0.16 -0.215,0.354 -0.031,0.472 1.164,0.736 2.037,1.799 3.06,2.705 1.291,1.139 2.91,1.672 4.576,1.951 2.824,0.474 4.101,-1.602 6.189,-2.954 0.324,-0.21 0.478,-0.798 -0.096,-0.693"/>
        <path
                id="path44"
                style="opacity:1;fill:#000000;fill-rule:nonzero;stroke:#ffffff;stroke-width:0.5;stroke-linecap:butt;stroke-linejoin:miter;stroke-miterlimit:10;stroke-dasharray:none"
                d="m 63.553,71.891 c -0.315,-0.094 -0.96,0.14 -0.881,0.409 0.49,1.661 0.48,4.793 2.503,5.411 1.983,0.606 4.288,-0.717 6.353,-0.411 0.178,0.026 1.072,-0.14 0.81,-0.47 -2.081,-2.642 -5.371,-4.752 -8.785,-4.939"/>
        <path
                id="path46"
                style="opacity:1;fill:#000000;fill-rule:nonzero;stroke:#ffffff;stroke-width:0.5;stroke-linecap:butt;stroke-linejoin:miter;stroke-miterlimit:10;stroke-dasharray:none"
                d="m 44.815,18.733 0.019,0.019 0.007,0.007 c 0.197,0.267 0.938,0.059 1.025,-0.195 2.535,-2.571 4.465,-5.096 5.426,-8.632 0.951,-3.483 0.211,-7.266 -2.224,-9.94 -0.196,-0.217 -0.733,-0.06 -0.904,0.12 -2.537,2.633 -4.152,5.468 -5.178,8.963 -0.409,1.391 -0.82,2.631 -0.572,4.069 0.336,1.951 1.523,3.844 2.401,5.589"/>
        <path
                id="path48"
                style="opacity:1;fill:#000000;fill-rule:nonzero;stroke:#ffffff;stroke-width:0.5;stroke-linecap:butt;stroke-linejoin:miter;stroke-miterlimit:10;stroke-dasharray:none"
                d="m 43.25,33.75 c 0,0 5.75,-4.25 0.75,-12 -1.25,-2.5 -5.5,1.25 -4.75,6.25 0.75,5 4,5.75 4,5.75 z"/>
        <path
                id="path50"
                style="opacity:1;fill:#000000;fill-rule:nonzero;stroke:#ffffff;stroke-width:0.5;stroke-linecap:butt;stroke-linejoin:miter;stroke-miterlimit:10;stroke-dasharray:none"
                d="m 37.833,32.917 c 0,0 0.333,-6.834 -4.5,-7.667 -4.833,-0.833 -6.75,-0.333 -6.75,-0.333 0,0 1.667,8.833 11.25,8 z"/>
        <path
                id="path52"
                style="opacity:1;fill:#000000;fill-rule:nonzero;stroke:#ffffff;stroke-width:0.5;stroke-linecap:butt;stroke-linejoin:miter;stroke-miterlimit:10;stroke-dasharray:none"
                d="M 45.048,84.649 C 43.866,90.101 44.392,95 46.572,100 h 21.264 c -3.964,-7 -7.68,-15.628 -8.312,-23.473 -0.597,-7.392 0.046,-16.431 5.229,-22.1 0.067,-0.072 0.059,-0.171 -0.052,-0.19 -3.198,-0.606 -5.769,-2.199 -8.065,-4.224 1.29,-6.444 2.861,-12.762 4.916,-19.035 0.136,-0.414 -0.87,-0.178 -1.011,0.052 -2.823,4.662 -5.858,9.777 -7.652,15.183 -0.906,-1.007 -1.799,-2.032 -2.708,-3.032 -4.5,-4.953 -10.533,-7.23 -16.861,-8.456 -0.14,-0.027 -1.181,0.17 -0.917,0.415 9.101,8.415 18.157,17.27 16.727,30.964 -0.658,6.299 -2.745,12.387 -4.082,18.545 z"/></g></g></g></svg>